<svg width="23" height="23" viewBox="0 0 23 23" fill="none" xmlns="http://www.w3.org/2000/svg">
<path d="M6.58229 0.200684H15.8248C19.3458 0.200684 22.2065 3.06146 22.2065 6.58241V15.8249C22.2065 17.5175 21.5342 19.1407 20.3374 20.3375C19.1406 21.5343 17.5173 22.2067 15.8248 22.2067H6.58229C3.06134 22.2067 0.200562 19.3459 0.200562 15.8249V6.58241C0.200562 4.88987 0.872921 3.26666 2.06973 2.06985C3.26653 0.873043 4.88975 0.200684 6.58229 0.200684ZM6.36223 2.40128C5.31169 2.40128 4.30418 2.81861 3.56133 3.56145C2.81848 4.3043 2.40116 5.31181 2.40116 6.36235V16.045C2.40116 18.2346 4.17264 20.0061 6.36223 20.0061H16.0449C17.0954 20.0061 18.1029 19.5887 18.8458 18.8459C19.5886 18.103 20.0059 17.0955 20.0059 16.045V6.36235C20.0059 4.17276 18.2345 2.40128 16.0449 2.40128H6.36223ZM16.9801 4.05173C17.3449 4.05173 17.6947 4.19663 17.9526 4.45457C18.2106 4.7125 18.3555 5.06233 18.3555 5.4271C18.3555 5.79187 18.2106 6.1417 17.9526 6.39964C17.6947 6.65757 17.3449 6.80247 16.9801 6.80247C16.6153 6.80247 16.2655 6.65757 16.0076 6.39964C15.7496 6.1417 15.6047 5.79187 15.6047 5.4271C15.6047 5.06233 15.7496 4.7125 16.0076 4.45457C16.2655 4.19663 16.6153 4.05173 16.9801 4.05173ZM11.2035 5.70218C12.6626 5.70218 14.062 6.2818 15.0937 7.31353C16.1254 8.34525 16.705 9.74458 16.705 11.2037C16.705 12.6628 16.1254 14.0621 15.0937 15.0938C14.062 16.1255 12.6626 16.7052 11.2035 16.7052C9.74446 16.7052 8.34513 16.1255 7.3134 15.0938C6.28167 14.0621 5.70205 12.6628 5.70205 11.2037C5.70205 9.74458 6.28167 8.34525 7.3134 7.31353C8.34513 6.2818 9.74446 5.70218 11.2035 5.70218ZM11.2035 7.90277C10.3281 7.90277 9.4885 8.25054 8.86946 8.86958C8.25042 9.48862 7.90265 10.3282 7.90265 11.2037C7.90265 12.0791 8.25042 12.9187 8.86946 13.5378C9.4885 14.1568 10.3281 14.5046 11.2035 14.5046C12.079 14.5046 12.9186 14.1568 13.5376 13.5378C14.1567 12.9187 14.5044 12.0791 14.5044 11.2037C14.5044 10.3282 14.1567 9.48862 13.5376 8.86958C12.9186 8.25054 12.079 7.90277 11.2035 7.90277Z" fill="white"/>
</svg>