<svg width="22" height="21" viewBox="0 0 22 21" fill="none" xmlns="http://www.w3.org/2000/svg">
<path d="M5.27363 2.5015C5.27334 3.08514 5.04121 3.64475 4.62831 4.05724C4.21541 4.46972 3.65557 4.70129 3.07193 4.701C2.4883 4.70071 1.92868 4.46858 1.5162 4.05568C1.10371 3.64278 0.872145 3.08294 0.872437 2.4993C0.872729 1.91567 1.10486 1.35605 1.51775 0.943567C1.93065 0.531081 2.4905 0.299513 3.07413 0.299805C3.65777 0.300097 4.21738 0.532225 4.62987 0.945123C5.04235 1.35802 5.27392 1.91787 5.27363 2.5015ZM5.33965 6.33054H0.938455V20.1063H5.33965V6.33054ZM12.2935 6.33054H7.91435V20.1063H12.2495V12.8773C12.2495 8.85023 17.4979 8.47612 17.4979 12.8773V20.1063H21.8441V11.3809C21.8441 4.59207 14.076 4.84514 12.2495 8.17904L12.2935 6.33054Z" fill="white"/>
</svg>