<svg width="1176" height="24" viewBox="0 0 1176 24" fill="none" xmlns="http://www.w3.org/2000/svg">
<rect opacity="0.7" y="-0.000244141" width="24" height="24" rx="4" fill="#1B1D21"/>
<path d="M9 4.99976H6C5.4 4.99976 5 5.39976 5 5.99976V17.9998C5 18.5998 5.4 18.9998 6 18.9998H9C9.6 18.9998 10 18.5998 10 17.9998V5.99976C10 5.39976 9.6 4.99976 9 4.99976Z" fill="white"/>
<path d="M18 4.99976H15C14.4 4.99976 14 5.39976 14 5.99976V17.9998C14 18.5998 14.4 18.9998 15 18.9998H18C18.6 18.9998 19 18.5998 19 17.9998V5.99976C19 5.39976 18.6 4.99976 18 4.99976Z" fill="white"/>
<rect opacity="0.7" x="33" y="-0.000244141" width="24" height="24" rx="4" fill="#1B1D21"/>
<path d="M49.8 16.1997C49.4 15.7997 49.4 15.1997 49.8 14.7997C51.4 13.1997 51.4 10.6997 49.8 9.09966C49.4 8.69966 49.4 8.09966 49.8 7.69966C50.2 7.29966 50.8 7.29966 51.2 7.69966C53.5 9.99966 53.5 13.7997 51.2 16.1997C50.9 16.5997 50.2 16.5997 49.8 16.1997Z" fill="white"/>
<path d="M48 4.9997C48 4.1997 47.1 3.6997 46.4 4.1997L40.7 7.9997H38C37.4 7.9997 37 8.3997 37 8.9997V14.9997C37 15.5997 37.4 15.9997 38 15.9997H40.7L46.4 19.7997C47.1 20.1997 48 19.7997 48 18.9997V4.9997Z" fill="white"/>
<rect opacity="0.2" x="65" y="10.9998" width="64" height="2" rx="1" fill="white"/>
<rect x="65" y="10.9998" width="32" height="2" rx="1" fill="white"/>
<circle cx="97" cy="11.9998" r="4" fill="white"/>
<rect opacity="0.7" x="1088" y="-0.000244141" width="24" height="24" rx="4" fill="#1B1D21"/>
<path fill-rule="evenodd" clip-rule="evenodd" d="M1105.9 7.81476C1105.21 8.96576 1105.83 10.4578 1107.14 10.7838C1107.74 10.9348 1108 11.3298 1108 11.7808V12.2188C1108 12.6688 1107.74 13.0648 1107.14 13.2158C1105.83 13.5408 1105.21 15.0328 1105.9 16.1848C1106.23 16.7208 1106.13 17.1828 1105.81 17.5008L1105.5 17.8108C1105.18 18.1298 1104.72 18.2258 1104.19 17.9048C1103.03 17.2138 1101.54 17.8318 1101.22 19.1348C1101.06 19.7418 1100.67 19.9998 1100.22 19.9998H1099.78C1099.33 19.9998 1098.93 19.7418 1098.78 19.1348C1098.46 17.8318 1096.97 17.2138 1095.82 17.9048C1095.28 18.2258 1094.82 18.1298 1094.5 17.8108L1094.19 17.5008C1093.87 17.1828 1093.77 16.7208 1094.1 16.1848C1094.79 15.0338 1094.17 13.5418 1092.87 13.2158C1092.26 13.0638 1092 12.6688 1092 12.2188V11.7808C1092 11.3298 1092.26 10.9348 1092.87 10.7838C1094.17 10.4588 1094.79 8.96676 1094.1 7.81476C1093.77 7.27876 1093.87 6.81576 1094.19 6.49776L1094.5 6.18776C1094.82 5.86976 1095.28 5.77276 1095.82 6.09476C1096.97 6.78576 1098.46 6.16776 1098.78 4.86476C1098.94 4.25776 1099.33 3.99976 1099.78 3.99976H1100.22C1100.67 3.99976 1101.06 4.25776 1101.22 4.86476C1101.54 6.16776 1103.03 6.78576 1104.19 6.09476C1104.72 5.77376 1105.18 5.87076 1105.5 6.18876L1105.81 6.49876C1106.13 6.81676 1106.23 7.27876 1105.9 7.81476ZM1097 11.9998C1097 13.6568 1098.34 14.9998 1100 14.9998C1101.66 14.9998 1103 13.6568 1103 11.9998C1103 10.3428 1101.66 8.99976 1100 8.99976C1098.34 8.99976 1097 10.3428 1097 11.9998Z" fill="white"/>
<rect opacity="0.7" x="1120" y="-0.000244141" width="24" height="24" rx="4" fill="#1B1D21"/>
<path fill-rule="evenodd" clip-rule="evenodd" d="M1124 15.9998V5.99976H1140V15.9998H1124ZM1134 10.9998L1131 8.99976V12.9998L1134 10.9998Z" fill="white"/>
<rect x="1126" y="16.9998" width="12" height="2" fill="white"/>
<rect opacity="0.7" x="1152" y="-0.000244141" width="24" height="24" rx="4" fill="#1B1D21"/>
<path d="M1158 9.99976H1156V4.99976C1156 4.39976 1156.4 3.99976 1157 3.99976H1162V5.99976H1158V9.99976Z" fill="white"/>
<path d="M1172 9.99976H1170V5.99976H1166V3.99976H1171C1171.6 3.99976 1172 4.39976 1172 4.99976V9.99976Z" fill="white"/>
<path d="M1171 19.9998H1166V17.9998H1170V13.9998H1172V18.9998C1172 19.5998 1171.6 19.9998 1171 19.9998Z" fill="white"/>
<path d="M1162 19.9998H1157C1156.4 19.9998 1156 19.5998 1156 18.9998V13.9998H1158V17.9998H1162V19.9998Z" fill="white"/>
</svg>