
<svg width="23" height="23" viewBox="0 0 23 23" fill="none" xmlns="http://www.w3.org/2000/svg">
<path d="M19.2797 3.40262C18.2709 2.38366 17.0694 1.57576 15.7451 1.02603C14.4208 0.476302 13.0004 0.195754 11.5666 0.200749C5.55894 0.200749 0.662609 5.09708 0.662609 11.1047C0.662609 13.0302 1.16875 14.9007 2.115 16.5512L0.574585 22.2067L6.35115 20.6883C7.94658 21.5575 9.74007 22.0197 11.5666 22.0197C17.5742 22.0197 22.4705 17.1233 22.4705 11.1157C22.4705 8.19992 21.3372 5.46018 19.2797 3.40262ZM11.5666 20.1712C9.93812 20.1712 8.34269 19.731 6.94531 18.9058L6.61522 18.7078L3.18229 19.61L4.09554 16.2651L3.87548 15.924C2.97076 14.4793 2.49036 12.8093 2.4891 11.1047C2.4891 6.10935 6.56021 2.03825 11.5556 2.03825C13.9762 2.03825 16.2538 2.9845 17.9593 4.70097C18.8038 5.54156 19.473 6.5414 19.9282 7.64254C20.3834 8.74367 20.6155 9.92421 20.611 11.1157C20.633 16.1111 16.5619 20.1712 11.5666 20.1712ZM16.5399 13.3933C16.2648 13.2613 14.9225 12.6011 14.6804 12.5021C14.4273 12.4141 14.2513 12.3701 14.0642 12.6341C13.8772 12.9092 13.3601 13.5254 13.206 13.7014C13.052 13.8885 12.8869 13.9105 12.6118 13.7674C12.3368 13.6354 11.4565 13.3383 10.4223 12.4141C9.60804 11.6879 9.06889 10.7966 8.90384 10.5215C8.7498 10.2465 8.88184 10.1034 9.02488 9.9604C9.14591 9.83936 9.29995 9.64131 9.43199 9.48727C9.56402 9.33323 9.61904 9.21219 9.70706 9.03615C9.79509 8.84909 9.75107 8.69505 9.68506 8.56302C9.61904 8.43098 9.06889 7.08862 8.84883 6.53847C8.62877 6.01033 8.39771 6.07634 8.23266 6.06534H7.70452C7.51747 6.06534 7.23139 6.13136 6.97832 6.40643C6.73626 6.68151 6.03206 7.34169 6.03206 8.68405C6.03206 10.0264 7.01133 11.3248 7.14337 11.5008C7.2754 11.6879 9.06889 14.4386 11.7976 15.6159C12.4468 15.902 12.9529 16.0671 13.349 16.1881C13.9982 16.3971 14.5924 16.3641 15.0655 16.2981C15.5937 16.2211 16.683 15.6379 16.903 14.9998C17.1341 14.3616 17.1341 13.8224 17.0571 13.7014C16.98 13.5804 16.815 13.5254 16.5399 13.3933Z" fill="white"/>
</svg>
